<svg width="31" height="30" viewBox="0 0 31 30" fill="none" xmlns="http://www.w3.org/2000/svg">
<path d="M9.7708 6.17004H8.64917V9.75543H9.7708V6.17004Z" fill="black"/>
<path d="M9.7708 10.9638H8.64917V14.5492H9.7708V10.9638Z" fill="black"/>
<path d="M9.7708 15.7576H8.64917V19.343H9.7708V15.7576Z" fill="black"/>
<path d="M9.7708 20.5513H8.64917V24.1271H9.7708V20.5513Z" fill="black"/>
<path fill-rule="evenodd" clip-rule="evenodd" d="M1.61584 5.86401C1.61584 5.54634 1.87337 5.28882 2.19104 5.28882H29.5512C29.8688 5.28882 30.1264 5.54634 30.1264 5.86401V12.1624C30.1264 12.4801 29.8688 12.7376 29.5512 12.7376C28.2979 12.7376 27.2887 13.7538 27.2887 15C27.2887 15.0321 27.2861 15.0635 27.2811 15.0942C27.3304 16.3034 28.3267 17.2625 29.5416 17.2625C29.8592 17.2625 30.1168 17.52 30.1168 17.8377V24.136C30.1168 24.4537 29.8592 24.7112 29.5416 24.7112H2.19104C1.87337 24.7112 1.61584 24.4537 1.61584 24.136V17.8089C1.61584 17.6453 1.68552 17.4894 1.80743 17.3803C1.92934 17.2712 2.09195 17.2192 2.25456 17.2372C2.28591 17.2407 2.31512 17.2448 2.33834 17.2482C2.3464 17.2494 2.35347 17.2504 2.35994 17.2513C2.37439 17.2534 2.38586 17.2551 2.39869 17.2569C2.43265 17.2615 2.44905 17.2625 2.45946 17.2625C3.71399 17.2625 4.7219 16.2546 4.7219 15C4.7219 13.7473 3.70651 12.7384 2.461 12.7376C2.45968 12.7378 2.44901 12.7388 2.41373 12.7446C2.41122 12.745 2.40839 12.7454 2.40524 12.746C2.36668 12.7523 2.2819 12.7664 2.19104 12.7664C1.87337 12.7664 1.61584 12.5088 1.61584 12.1912V5.86401ZM26.1402 14.8851C26.1944 13.2522 27.3976 11.9028 28.976 11.6354V6.43921H2.76624V11.6008C4.5026 11.7557 5.87229 13.2129 5.87229 15C5.87229 16.7865 4.51146 18.2451 2.76624 18.3994V23.5609H28.9664V18.3645C27.3594 18.0915 26.1287 16.694 26.1287 15C26.1287 14.9607 26.1327 14.9222 26.1402 14.8851Z" fill="black"/>
<path fill-rule="evenodd" clip-rule="evenodd" d="M15.6101 10.0058C14.6147 10.0058 13.8078 10.8127 13.8078 11.8081C13.8078 12.8035 14.6147 13.6104 15.6101 13.6104C16.6054 13.6104 17.4123 12.8035 17.4123 11.8081C17.4123 10.8127 16.6054 10.0058 15.6101 10.0058ZM12.8491 11.8081C12.8491 10.2833 14.0852 9.04718 15.6101 9.04718C17.1349 9.04718 18.371 10.2833 18.371 11.8081C18.371 13.3329 17.1349 14.5691 15.6101 14.5691C14.0852 14.5691 12.8491 13.3329 12.8491 11.8081Z" fill="black"/>
<path fill-rule="evenodd" clip-rule="evenodd" d="M21.4184 16.3913C20.4273 16.3913 19.6161 17.2024 19.6161 18.1936C19.6161 19.1847 20.4273 19.9958 21.4184 19.9958C22.4108 19.9958 23.2207 19.1929 23.2207 18.1936C23.2207 17.2024 22.4095 16.3913 21.4184 16.3913ZM18.6575 18.1936C18.6575 16.673 19.8978 15.4326 21.4184 15.4326C22.939 15.4326 24.1793 16.673 24.1793 18.1936C24.1793 19.725 22.9377 20.9545 21.4184 20.9545C19.8978 20.9545 18.6575 19.7141 18.6575 18.1936Z" fill="black"/>
<path d="M22.7598 11.4349L22.1158 10.791L14.0085 18.8983L14.6525 19.5423L22.7598 11.4349Z" fill="black"/>
</svg>
